#!OML:ASF H:\GeneralSubjects\Female5\Project 1\Capture day 1\Session 1\Female5.ASF
:FULLY-SPECIFIED
:DEGREES
397
root -13.3383 16.0692 3.23687 347.77 -101.027 -340
lowerback 5.07516 3.29948 -0.167213
upperback -11.9845 4.4288 3.59626
thorax -16.6067 2.18491 3.38129
lowerneck -16.6292 -1.9826 1.64427
upperneck 28.9608 -3.18944 -2.60283
head 12.2392 -1.83024 -1.80498
rclavicle 7.95139e-015 -7.95139e-015
rhumerus 28.9411 -25.1012 -65.6005
rradius 111.822
rwrist 1.44399
rhand -64.6566 -59.8477
rfingers 7.12502
rthumb -36.5727 -86.0214
lclavicle 7.95139e-015 -7.95139e-015
lhumerus -43.9061 -19.8338 88.4442
lradius 43.9629
lwrist -9.11312
lhand -27.5927 30.5307
lfingers 7.12502
lthumb -0.99257 -299.492
rfemur 14.7035 14.2201 37.6286
rtibia -4.49011
rfoot -31.727 -25.6037
rtoes -5.46824
lfemur -24.8295 -15.3076 -19.0271
ltibia 26.3963
lfoot -15.3108 -7.26186
ltoes -7.91006
398
root -13.3897 16.0891 3.22097 342.32 -99.5215 -334.496
lowerback 4.96261 3.39903 -0.198001
upperback -12.0329 4.57099 3.61264
thorax -16.611 2.26125 3.39287
lowerneck -16.5911 -2.87614 0.564116
upperneck 28.5375 -4.22257 -2.27604
head 12.0718 -2.35861 -1.63757
rclavicle -2.36554e-014 2.54444e-014
rhumerus 30.193 -20.6511 -64.2869
rradius 103.472
rwrist 2.19002
rhand -61.3859 -44.5002
rfingers 7.12502
rthumb -33.4702 -71.4
lclavicle -2.36554e-014 2.54444e-014
lhumerus -42.4639 -18.606 87.4083
lradius 43.9703
lwrist -8.9227
lhand -28.1727 30.2176
lfingers 7.12502
lthumb -1.55273 -299.808
rfemur 14.6537 13.0483 37.886
rtibia -4.24899
rfoot -31.4539 -25.5577
rtoes -5.60387
lfemur -24.8535 -15.8422 -18.823
ltibia 26.0557
lfoot -14.3844 -6.80478
ltoes -7.40693
399
root -13.4397 16.1104 3.20849 333.838 -98.1426 -326.1
lowerback 4.96007 3.40021 -0.0327414
upperback -12.0268 4.61761 3.71458
thorax -16.6013 2.27567 3.40662
lowerneck -16.5087 -3.67536 -0.685765
upperneck 28.2245 -5.13065 -1.77468
head 11.9718 -2.82722 -1.36301
rclavicle 2.10712e-014 3.97569e-015
rhumerus 31.855 -16.9087 -62.6562
rradius 94.2452
rwrist 1.4793
rhand -55.4989 -25.2746
rfingers 7.12502
rthumb -27.8572 -53.2292
lclavicle 2.10712e-014 3.97569e-015
lhumerus -41.2224 -16.9994 86.4163
lradius 44.1053
lwrist -8.70942
lhand -28.457 30.3492
lfingers 7.12502
lthumb -1.82733 -299.679
rfemur 14.5525 11.4828 38.1069
rtibia -3.76524
rfoot -30.3692 -25.3942
rtoes -7.17499
lfemur -24.7267 -16.4663 -18.5626
ltibia 25.6424
lfoot -13.6224 -6.27329
ltoes -7.55366
400
root -13.4882 16.133 3.19676 323.586 -96.9423 -315.95
lowerback 4.93028 3.31918 -0.0634202
upperback -12.0211 4.52698 3.84468
thorax -16.5861 2.25344 3.59012
lowerneck -16.2747 -4.31209 -1.64152
upperneck 27.8971 -5.8081 -1.57802
head 11.8337 -3.20304 -1.21436
rclavicle -7.95139e-015 -3.4191e-014
rhumerus 33.7749 -13.337 -60.6602
rradius 83.6665
rwrist 4.18174
rhand -47.1586 -14.2805
rfingers 7.12502
rthumb -19.8597 -43.2858
lclavicle -7.95139e-015 -3.4191e-014
lhumerus -40.3084 -15.0929 85.4646
lradius 44.3676
lwrist -8.5801
lhand -28.8033 30.1039
lfingers 7.12502
lthumb -2.16175 -299.927
rfemur 14.4515 10.1995 38.1901
rtibia -3.25055
rfoot -29.541 -25.1953
rtoes -8.49099
lfemur -24.5981 -17.153 -18.4425
ltibia 25.2845
lfoot -12.978 -5.91822
ltoes -7.80604
401
root -13.5358 16.1556 3.19017 310.601 -95.9651 -303.018
lowerback 4.86657 3.22653 -0.0577717
upperback -12.0446 4.41027 3.86332
thorax -16.5656 2.20415 3.63257
lowerneck -15.9738 -4.92991 -2.50343
upperneck 27.5965 -6.49313 -1.39494
head 11.6992 -3.57511 -1.08702
rclavicle -1.55052e-014 1.59028e-014
rhumerus 35.6869 -10.4778 -58.4565
rradius 73.7763
rwrist 7.87607
rhand -35.8431 -13.0092
rfingers 7.12502
rthumb -8.95842 -42.799
lclavicle -1.55052e-014 1.59028e-014
lhumerus -39.6519 -13.3026 84.5451
lradius 44.8354
lwrist -8.57794
lhand -29.2385 29.8359
lfingers 7.12502
lthumb -2.58209 -300.2
rfemur 14.4262 9.12828 38.202
rtibia -2.89141
rfoot -29.2212 -24.7073
rtoes -8.48435
lfemur -24.5318 -17.9163 -18.4374
ltibia 25.0206
lfoot -12.2623 -5.64388
ltoes -8.2658
